<svg xmlns="http://www.w3.org/2000/svg" width="752" height="752" viewBox="0 0 752 752">
<g transform="translate(0,752) scale(0.1,-0.1)">
<path d="M4276 6860 c-615 -38 -1122 -72 -1126 -77 -10 -11 -1060 -2418 -1060
-2430 0 -5 26 -14 58 -21 85 -17 117 -58 132 -165 14 -97 -2 -150 -64 -212
-59 -59 -132 -92 -227 -102 -43 -4 -59 -10 -59 -21 0 -8 60 -73 133 -143 l132
-128 -158 -1 -159 0 -43 36 c-25 20 -50 34 -56 32 -12 -4 -99 -193 -99 -216 0
-9 7 -12 19 -9 10 2 213 40 450 83 296 54 431 83 431 92 0 6 -7 12 -15 12 -29
0 -115 50 -155 90 -70 70 -85 110 -85 230 0 100 2 109 34 175 44 89 138 185
218 223 l58 27 333 3 c187 2 332 -1 332 -6 0 -10 -57 -80 -119 -144 l-45 -48
-193 0 c-207 0 -239 -6 -282 -51 -82 -87 -89 -208 -16 -287 32 -35 36 -37 109
-40 74 -4 76 -4 86 23 23 60 17 65 -65 65 -41 0 -75 3 -75 8 0 4 32 46 70 95
l70 87 180 0 c99 0 180 -3 180 -7 0 -5 -39 -113 -87 -240 l-88 -233 -174 -2
-173 -3 -774 -1583 c-426 -870 -774 -1587 -774 -1593 0 -6 6 -9 14 -7 17 4
3016 3164 3016 3178 0 6 -135 11 -376 12 l-377 3 42 53 c23 29 61 73 85 97
l43 45 90 0 90 0 67 183 c36 100 66 185 66 189 0 4 -62 9 -137 10 l-136 3 51
62 c28 34 68 78 88 97 l37 36 364 0 c256 0 363 -3 363 -11 0 -17 -38 -68 -99
-131 l-54 -58 -93 0 -92 0 -61 -165 c-33 -91 -63 -176 -67 -190 l-6 -25 135 0
c130 0 135 -1 130 -20 -9 -33 19 -22 58 23 29 34 54 91 129 297 51 140 95 261
97 268 4 9 46 12 163 12 l159 0 508 535 c279 295 509 542 511 550 3 11 -6 15
-35 15 -21 -1 -346 -29 -723 -64 -377 -35 -686 -63 -688 -61 -1 1 227 361 508
800 280 439 510 802 510 806 0 13 -28 12 -1234 -61z m-942 -3104 c56 -23 60
-76 10 -136 -35 -41 -74 -60 -123 -60 -118 0 -101 137 24 195 38 18 48 18 89
1z" fill="#CCFF66" fill-rule="evenodd"/>
<path d="M492 4303 c-5 -16 -66 -184 -136 -374 -69 -190 -126 -351 -126 -357
0 -9 39 -12 138 -12 l137 0 50 140 50 140 157 0 c87 0 158 -1 158 -3 0 -2 -20
-59 -45 -126 -25 -67 -45 -129 -45 -137 0 -11 24 -14 135 -14 74 0 135 1 135
3 0 2 61 169 135 372 74 203 135 375 135 382 0 10 -30 13 -134 13 l-134 0 -26
-67 c-14 -38 -38 -104 -54 -148 l-30 -80 -113 -3 -114 -3 -72 -71 -71 -71 74
202 c41 111 74 211 74 222 0 18 -8 19 -134 19 l-134 0 -10 -27z M1452 4303
c-37 -91 -262 -720 -262 -730 0 -11 29 -13 137 -11 l137 3 45 125 c25 69 50
131 54 138 6 9 53 -28 162 -128 l153 -140 141 0 c107 0 141 3 141 13 0 7 -56
68 -125 137 -69 69 -125 128 -125 131 0 3 26 9 58 12 127 14 230 65 279 138
21 33 28 56 31 108 5 86 -11 144 -53 189 l-33 37 -365 3 -364 3 -11 -28z m534
-171 c21 -15 23 -41 3 -66 -20 -25 -24 -26 -138 -26 l-117 0 -74 -62 c-43 -36
-71 -54 -66 -43 4 11 24 62 43 113 l36 92 151 0 c83 0 156 -4 162 -8z M2574
4300 c-80 -40 -125 -79 -173 -151 -135 -202 -93 -432 96 -527 90 -46 149 -55
342 -56 l183 -1 84 220 c46 121 83 228 84 238 0 15 -15 17 -168 17 l-168 0
-35 -37 c-54 -58 -109 -129 -109 -142 0 -7 25 -11 75 -11 41 0 75 -3 75 -6 0
-4 -5 -24 -12 -45 l-11 -39 -71 0 c-87 0 -124 20 -155 82 -47 98 -3 235 91
284 21 11 75 14 226 14 l200 0 76 81 c42 44 76 87 76 95 0 12 -51 14 -323 14
l-324 0 -59 -30z M3739 4283 c-65 -68 -99 -112 -99 -128 0 -12 27 -15 129 -17
l129 -3 -68 -185 -67 -185 -91 -3 -91 -3 -75 -81 c-42 -45 -76 -90 -76 -100 0
-17 18 -18 359 -18 l359 0 31 25 c38 33 121 142 121 161 0 11 -25 14 -130 14
-71 0 -130 1 -130 3 0 1 31 85 68 187 l67 185 97 5 c91 5 99 7 128 35 42 40
110 129 110 143 0 9 -95 12 -363 12 l-363 0 -45 -47z M4510 4078 c-168 -456
-180 -490 -180 -504 0 -12 24 -14 136 -12 l137 3 75 208 c42 114 78 204 82
200 4 -4 21 -89 39 -188 18 -99 35 -190 38 -202 5 -23 7 -23 182 -23 l178 0
136 378 c76 207 137 381 137 385 0 4 -62 6 -137 5 l-137 -3 -75 -207 c-41
-114 -78 -202 -82 -195 -3 6 -23 101 -44 210 l-37 197 -178 0 -177 0 -93 -252z
M5551 4308 c-73 -195 -261 -722 -261 -733 0 -13 22 -15 134 -15 l134 0 47 127
c26 70 51 136 56 145 9 16 26 18 156 18 l145 0 84 82 c46 45 84 87 84 95 0 10
-33 13 -153 13 l-153 0 -30 -31 c-16 -17 -46 -44 -66 -61 l-38 -30 39 109 39
108 233 3 234 2 38 38 c45 44 107 125 107 141 0 8 -115 11 -410 11 l-410 0 -9
-22z M6618 4316 c-137 -49 -264 -178 -318 -325 -29 -76 -30 -210 -3 -272 26
-59 90 -114 155 -135 71 -22 377 -32 457 -14 137 30 288 151 349 280 87 184
56 370 -73 437 -66 35 -127 43 -330 42 -138 0 -211 -4 -237 -13z m347 -190
c43 -18 57 -45 57 -110 1 -85 -70 -194 -153 -237 -55 -27 -201 -27 -246 1 -70
42 -87 141 -40 223 32 54 99 114 142 126 49 15 202 13 240 -3z M3219 3737
c-75 -50 -95 -119 -47 -159 26 -23 62 -22 115 2 72 32 108 124 65 163 -27 25
-92 22 -133 -6z" fill="#000000" fill-rule="evenodd"/>
</g>
</svg>